<svg id="Capa_2" width="60" xmlns="http://www.w3.org/2000/svg" viewBox="0 0 107.39 79.6"><g id="Capa_1-2"><path class="cls-1" d="m12.7,71.63h-1.51l-.36.91h-.73l1.85-4.44,1.84,4.44h-.73l-.36-.91Zm-.24-.6l-.51-1.29-.52,1.29h1.03Z"/><path class="cls-1" d="m17.57,72.54h-.75l-1.07-1.43h-.49v1.43h-.67v-4.24h1.26c.56,0,.89.23,1.06.42.22.25.34.59.34.98s-.12.73-.34.98c-.1.11-.26.24-.49.32l1.14,1.53Zm-1.71-2.03c.28,0,.48-.08.61-.23.16-.17.19-.41.19-.58s-.03-.41-.19-.58c-.13-.15-.34-.22-.61-.22h-.59v1.61h.59Z"/><path class="cls-1" d="m21,68.89h-1.17v3.65h-.67v-3.65h-1.17v-.6h3v.6Z"/><path class="cls-1" d="m22.51,70.02h1.55v.6h-1.55v1.32h1.88v.6h-2.55v-4.24h2.55v.6h-1.88v1.13Z"/><path class="cls-1" d="m30.63,70.94v1.15l-.15.1s0,0-.01,0c0,0-.02.01-.02.01,0,0-.01.01-.02.01,0,0-.01,0-.02,0,0,0-.01.01-.02.02,0,0-.01,0-.02.01,0,0-.01,0-.02,0-.01,0-.02,0-.03.01,0,0-.01,0-.02,0,0,0-.02.02-.03.02t-.01,0h-.01s-.02.01-.03.02c-.01,0-.03,0-.04.02h0c-.24.12-.49.17-.76.19h-.11c-.23,0-.46-.04-.67-.11h0s-.04-.02-.06-.03c-.03,0-.06-.02-.09-.03-.07-.03-.14-.06-.21-.1-.17-.09-.33-.21-.47-.35-.19-.2-.35-.42-.46-.68-.08-.19-.14-.4-.15-.61,0-.07-.01-.14-.01-.21v-.11c.02-.25.07-.49.17-.72.11-.25.26-.48.46-.68.19-.19.42-.35.67-.45.26-.11.54-.16.82-.16h.11s.03,0,.05,0c.25.02.49.08.71.18,0,0,0,0,0,0,.01,0,.02,0,.03.02h0v.79c-.09-.07-.18-.13-.29-.18-.09-.04-.18-.07-.26-.1,0,0-.01,0-.02,0h-.02s-.01,0-.02,0c0,0,0,0-.01,0-.02,0-.05,0-.07,0h-.01s-.02,0-.02,0h-.01s-.02,0-.02,0h-.05s-.01,0-.02,0h-.09c-.27,0-.53.07-.75.21,0,0-.02.01-.03.02-.09.06-.18.12-.25.21-.02.02-.05.04-.08.07,0,0,0,0,0,0-.03.04-.05.07-.08.1,0,0-.01.01-.01.01-.01.02-.02.03-.03.05,0,0-.01.02-.01.02-.09.14-.14.28-.18.43t0,.01c-.01.06-.02.12-.03.17v.06s0,.05,0,.08c0,.02,0,.04,0,.07,0,.11.02.22.05.32.07.24.2.46.37.63.27.27.64.43,1.03.43h.04s.01,0,.02,0h.08s0,0,.01,0h.03s.09-.02.13-.02t.01,0s.02,0,.02,0h.02s.01,0,.02,0c0,0,.02,0,.02,0s.01,0,.01,0c.08-.03.16-.05.23-.09h0v-.79h-.8v-.6h1.46v.6Z"/><path class="cls-1" d="m33.94,71.63h-1.51l-.36.91h-.73l1.85-4.44,1.84,4.44h-.73l-.36-.91Zm-.24-.6l-.51-1.29-.51,1.29h1.03Z"/><path class="cls-1" d="m38.76,72.54h-.75l-1.07-1.43h-.49v1.43h-.66v-4.24h1.26c.56,0,.89.23,1.06.42.22.25.34.59.34.98s-.12.73-.34.98c-.1.11-.26.24-.49.32l1.14,1.53Zm-1.71-2.03c.27,0,.48-.08.61-.23.16-.17.19-.41.19-.58s-.03-.41-.19-.58c-.13-.15-.34-.22-.61-.22h-.59v1.61h.59Z"/><path class="cls-1" d="m41.9,71.63h-1.51l-.36.91h-.73l1.85-4.44,1.84,4.44h-.73l-.36-.91Zm-.24-.6l-.52-1.29-.51,1.29h1.03Z"/><path class="cls-1" d="m43.81,72.54v-4.24h.66v4.24h-.66Z"/><path class="cls-1" d="m47.93,72.54l-1.68-1.92v1.92h-.67v-4.24h.67v1.75l1.36-1.75h.83l-1.56,2.04,1.87,2.2h-.83Z"/><path class="cls-1" d="m49.69,72.54v-4.24h.66v4.24h-.66Z"/><path class="cls-1" d="m54.6,70.42c0,.6-.18,1.12-.52,1.49-.18.21-.41.37-.68.47-.27.11-.58.17-.93.17h-1.01v-4.24h1.01c.34,0,.65.05.93.16.27.1.5.26.68.47.34.37.52.89.52,1.49Zm-.67,0c0-.43-.12-.8-.34-1.04-.25-.28-.62-.42-1.12-.42h-.34v2.92h.34c.49,0,.86-.15,1.12-.42.22-.25.34-.61.34-1.04Z"/><path class="cls-1" d="m56.22,70.02h1.55v.6h-1.55v1.32h1.88v.6h-2.55v-4.24h2.55v.6h-1.88v1.13Z"/><path class="cls-1" d="m61.46,72.54l-1.68-1.92v1.92h-.66v-4.24h.66v1.75l1.36-1.75h.84l-1.56,2.04,1.87,2.2h-.83Z"/><path class="cls-1" d="m63.87,72.37c-.26-.11-.48-.26-.68-.46-.2-.2-.35-.42-.46-.68-.11-.26-.16-.54-.16-.82s.06-.57.16-.83c.11-.25.26-.48.46-.68.19-.19.42-.34.68-.45.26-.11.54-.16.82-.16s.57.06.83.16c.25.11.47.26.67.45.2.2.35.42.45.68.11.26.17.54.17.83s-.06.57-.17.82c-.11.26-.26.48-.45.68-.2.19-.42.35-.67.46-.26.11-.54.17-.83.17s-.57-.06-.82-.17Zm-.21-2.98c-.28.28-.43.64-.43,1.03s.15.75.43,1.03c.28.27.64.43,1.03.43s.75-.16,1.03-.43c.28-.28.43-.64.43-1.03s-.15-.75-.43-1.03c-.28-.28-.64-.43-1.03-.43s-.76.16-1.03.43Z"/><path class="cls-1" d="m69.59,72.54l2.18-3.58h-1.71v-.66h2.89l-2.18,3.58h2.12v.66h-3.31Z"/><path class="cls-1" d="m74.67,70.02h1.55v.6h-1.55v1.32h1.88v.6h-2.55v-4.24h2.55v.6h-1.88v1.13Z"/><path class="cls-1" d="m78.23,69.81v2.73h-.66v-4.45l2.67,2.92v-2.72h.67v4.44l-2.67-2.92Z"/><path class="cls-1" d="m84.75,68.89h-1.17v3.65h-.67v-3.65h-1.17v-.6h3v.6Z"/><path class="cls-1" d="m88.56,72.54h-.75l-1.07-1.43h-.49v1.43h-.66v-4.24h1.26c.56,0,.89.23,1.06.42.22.25.34.59.34.98s-.12.73-.34.98c-.1.11-.26.24-.49.32l1.14,1.53Zm-1.71-2.03c.28,0,.48-.08.61-.23.16-.17.19-.41.19-.58s-.03-.41-.19-.58c-.13-.15-.34-.22-.61-.22h-.59v1.61h.59Z"/><path class="cls-1" d="m90.38,72.37c-.26-.11-.48-.26-.68-.46-.19-.2-.35-.42-.46-.68-.11-.26-.16-.54-.16-.82s.05-.57.16-.83c.11-.25.27-.48.46-.68.2-.19.42-.34.68-.45.26-.11.54-.16.82-.16s.57.06.83.16c.25.11.47.26.67.45.2.2.35.42.45.68.11.26.17.54.17.83s-.06.57-.17.82c-.11.26-.26.48-.45.68-.2.19-.42.35-.67.46-.27.11-.54.17-.83.17s-.56-.06-.82-.17Zm-.21-2.98c-.27.28-.43.64-.43,1.03s.16.75.43,1.03c.28.27.64.43,1.03.43s.76-.16,1.03-.43c.27-.28.43-.64.43-1.03s-.16-.75-.43-1.03c-.28-.28-.64-.43-1.03-.43s-.75.16-1.03.43Z"/><path class="cls-1" d="m96.24,71.63h-1.51l-.36.91h-.73l1.85-4.44,1.84,4.44h-.73l-.36-.91Zm-.24-.6l-.52-1.29-.51,1.29h1.03Z"/><path class="cls-1" d="m3.3,79.06c-.11.07-.22.13-.34.18-.26.11-.54.17-.83.17s-.57-.06-.82-.17c-.26-.11-.48-.26-.67-.46-.19-.19-.35-.42-.46-.67s-.17-.54-.17-.82.06-.57.17-.83c.11-.25.26-.48.46-.67.19-.2.42-.35.67-.45.26-.12.54-.17.82-.17s.57.05.83.17c.03,0,.06.03.09.04v.78c-.26-.21-.58-.33-.92-.33-.39,0-.75.15-1.03.43-.28.28-.43.64-.43,1.03s.15.76.43,1.03c.27.28.64.43,1.03.43s.76-.15,1.03-.43c.05-.05.1-.1.14-.16v.9Z"/><path class="cls-1" d="m4.94,76.89h1.55v.6h-1.55v1.32h1.88v.6h-2.55v-4.25h2.55v.59h-1.88v1.13Z"/><path class="cls-1" d="m8.5,76.68v2.73h-.66v-4.45l2.67,2.92v-2.72h.67v4.44l-2.67-2.93Z"/><path class="cls-1" d="m15.02,75.75h-1.17v3.65h-.67v-3.65h-1.17v-.59h3v.59Z"/><path class="cls-1" d="m18.83,79.41h-.75l-1.07-1.44h-.49v1.44h-.66v-4.25h1.26c.56,0,.89.23,1.06.42.22.25.34.59.34.98s-.12.73-.34.98c-.1.12-.26.25-.49.33l1.15,1.53Zm-1.71-2.03c.27,0,.48-.08.61-.23.16-.17.19-.41.19-.58s-.03-.41-.19-.58c-.13-.15-.34-.22-.61-.22h-.6v1.61h.6Z"/><path class="cls-1" d="m20.65,79.24c-.26-.11-.48-.26-.67-.46-.2-.19-.35-.42-.46-.67-.11-.26-.17-.54-.17-.82s.06-.57.17-.83c.11-.25.26-.47.46-.67.19-.2.42-.34.67-.45.26-.11.54-.17.82-.17s.57.06.83.17c.25.11.47.26.68.45.19.2.34.42.45.67.11.26.17.54.17.83s-.06.57-.17.82c-.11.26-.26.48-.45.67-.2.2-.42.35-.68.46-.26.11-.54.17-.83.17s-.57-.06-.82-.17Zm-.21-2.99c-.28.28-.43.64-.43,1.03s.15.76.43,1.03c.27.28.64.43,1.03.43s.76-.15,1.03-.43c.27-.28.43-.64.43-1.03s-.15-.75-.43-1.03c-.27-.27-.64-.43-1.03-.43s-.76.16-1.03.43Z"/><path class="cls-1" d="m29.65,77.28c0,.6-.18,1.12-.51,1.49-.18.2-.41.37-.68.47-.28.11-.58.17-.93.17h-1.01v-4.25h1.01c.34,0,.65.05.93.17.27.1.5.26.68.47.34.37.51.89.51,1.49Zm-.67,0c0-.43-.12-.79-.34-1.04-.25-.28-.62-.42-1.11-.42h-.34v2.92h.34c.49,0,.86-.14,1.11-.42.22-.25.34-.61.34-1.04Z"/><path class="cls-1" d="m31.28,76.89h1.55v.6h-1.55v1.32h1.88v.6h-2.54v-4.25h2.54v.59h-1.88v1.13Z"/><path class="cls-1" d="m38.41,78.5h-1.51l-.36.91h-.73l1.85-4.44,1.84,4.44h-.73l-.36-.91Zm-.24-.59l-.51-1.29-.51,1.29h1.03Z"/><path class="cls-1" d="m43.29,79.41h-.75l-1.07-1.44h-.49v1.44h-.66v-4.25h1.26c.56,0,.89.23,1.06.42.22.25.34.59.34.98s-.12.73-.34.98c-.1.12-.26.25-.49.33l1.14,1.53Zm-1.71-2.03c.28,0,.48-.08.61-.23.16-.17.19-.41.19-.58s-.03-.41-.19-.58c-.13-.15-.34-.22-.61-.22h-.59v1.61h.59Z"/><path class="cls-1" d="m46.72,75.75h-1.17v3.65h-.67v-3.65h-1.17v-.59h3v.59Z"/><path class="cls-1" d="m48.23,76.89h1.55v.6h-1.55v1.32h1.88v.6h-2.54v-4.25h2.54v.59h-1.88v1.13Z"/><path class="cls-1" d="m56.19,79.06c-.11.07-.22.13-.34.18-.26.11-.54.17-.83.17s-.56-.06-.82-.17c-.26-.11-.48-.26-.67-.46-.2-.19-.35-.42-.46-.67-.11-.26-.17-.54-.17-.82s.06-.57.17-.83c.11-.25.26-.48.46-.67.19-.2.42-.35.67-.45.26-.12.54-.17.82-.17s.57.05.83.17c.03,0,.06.03.09.04v.78c-.26-.21-.58-.33-.92-.33-.39,0-.75.15-1.03.43-.28.28-.43.64-.43,1.03s.15.76.43,1.03.64.43,1.03.43.76-.15,1.03-.43c.05-.05.1-.1.14-.16v.9Z"/><path class="cls-1" d="m58.33,79.24c-.26-.11-.48-.26-.68-.46-.2-.19-.35-.42-.46-.67-.11-.26-.17-.54-.17-.82s.06-.57.17-.83c.11-.25.26-.47.46-.67.19-.2.42-.34.68-.45.26-.11.54-.17.82-.17s.57.06.83.17c.25.11.47.26.68.45.19.2.34.42.45.67.11.26.17.54.17.83s-.06.57-.17.82c-.11.26-.26.48-.45.67-.2.2-.42.35-.68.46-.26.11-.54.17-.83.17s-.57-.06-.82-.17Zm-.21-2.99c-.28.28-.43.64-.43,1.03s.15.76.43,1.03c.28.28.64.43,1.03.43s.75-.15,1.03-.43c.28-.28.43-.64.43-1.03s-.15-.75-.43-1.03c-.28-.27-.64-.43-1.03-.43s-.75.16-1.03.43Z"/><path class="cls-1" d="m62.92,76.68v2.73h-.66v-4.45l2.67,2.92v-2.72h.67v4.44l-2.67-2.93Z"/><path class="cls-1" d="m69.44,75.75h-1.16v3.65h-.67v-3.65h-1.17v-.59h3v.59Z"/><path class="cls-1" d="m70.94,76.89h1.55v.6h-1.55v1.32h1.88v.6h-2.54v-4.25h2.54v.59h-1.88v1.13Z"/><path class="cls-1" d="m77.16,79.41v-2.26l-1.33,1.98-1.34-1.98v2.26h-.66v-4.44l2,2.97,1.99-2.97v4.44h-.67Z"/><path class="cls-1" d="m79.51,75.16h.7c.56,0,.89.23,1.06.42.23.25.34.59.34.98s-.12.74-.34.98c-.17.2-.5.42-1.06.42h-.6v1.44h-.66v-4.25h.56Zm1.51,1.4c0-.17-.04-.41-.19-.58-.14-.15-.34-.23-.62-.23h-.6v1.62h.6c.28,0,.48-.07.62-.22.15-.17.19-.41.19-.58Z"/><path class="cls-1" d="m83.55,79.24c-.26-.11-.48-.26-.68-.46-.19-.19-.35-.42-.46-.67-.11-.26-.16-.54-.16-.82s.05-.57.16-.83c.11-.25.26-.47.46-.67.2-.2.42-.34.68-.45.26-.11.54-.17.82-.17s.56.06.83.17c.25.11.47.26.67.45.2.2.35.42.45.67.11.26.17.54.17.83s-.06.57-.17.82c-.11.26-.26.48-.45.67-.2.2-.42.35-.67.46-.26.11-.54.17-.83.17s-.57-.06-.82-.17Zm-.21-2.99c-.28.28-.43.64-.43,1.03s.15.76.43,1.03c.27.28.64.43,1.03.43s.75-.15,1.03-.43c.27-.28.43-.64.43-1.03s-.15-.75-.43-1.03c-.28-.27-.64-.43-1.03-.43s-.76.16-1.03.43Z"/><path class="cls-1" d="m90.44,79.41h-.75l-1.07-1.44h-.49v1.44h-.67v-4.25h1.26c.56,0,.89.23,1.06.42.22.25.34.59.34.98s-.12.73-.34.98c-.1.12-.27.25-.49.33l1.14,1.53Zm-1.71-2.03c.27,0,.48-.08.61-.23.16-.17.19-.41.19-.58s-.03-.41-.19-.58c-.13-.15-.34-.22-.61-.22h-.6v1.61h.6Z"/><path class="cls-1" d="m93.59,78.5h-1.51l-.36.91h-.73l1.85-4.44,1.84,4.44h-.73l-.36-.91Zm-.24-.59l-.51-1.29-.52,1.29h1.03Zm-.43-3.93h.6l-.6.67h-.4l.4-.67Z"/><path class="cls-1" d="m96.16,76.68v2.73h-.66v-4.45l2.66,2.92v-2.72h.67v4.44l-2.67-2.93Z"/><path class="cls-1" d="m100.61,76.89h1.55v.6h-1.55v1.32h1.88v.6h-2.55v-4.25h2.55v.59h-1.88v1.13Z"/><path class="cls-1" d="m104.44,79.24c-.26-.11-.48-.26-.68-.46-.19-.19-.35-.42-.46-.67-.11-.26-.16-.54-.16-.82s.05-.57.16-.83c.11-.25.27-.47.46-.67.2-.2.42-.34.68-.45.26-.11.54-.17.82-.17s.57.06.83.17c.25.11.47.26.68.45.2.2.34.42.45.67.11.26.17.54.17.83s-.06.57-.17.82c-.11.26-.26.48-.45.67-.2.2-.42.35-.68.46-.26.11-.54.17-.83.17s-.56-.06-.82-.17Zm-.21-2.99c-.27.28-.43.64-.43,1.03s.16.76.43,1.03c.27.28.64.43,1.03.43s.75-.15,1.03-.43c.27-.28.43-.64.43-1.03s-.16-.75-.43-1.03c-.28-.27-.64-.43-1.03-.43s-.76.16-1.03.43Z"/><path class="cls-1" d="m42.95,60.14h-3.27v-2.1h-.06c-.41.76-1.02,1.37-1.82,1.82-.81.46-1.63.69-2.47.69-1.98,0-3.42-.49-4.3-1.47-.88-.98-1.33-2.47-1.33-4.45v-9.57h3.33v9.25c0,1.32.25,2.26.76,2.8.5.55,1.21.82,2.13.82.7,0,1.29-.11,1.75-.32.46-.21.84-.5,1.14-.86.29-.36.5-.79.62-1.3.13-.5.19-1.05.19-1.64v-8.75h3.33v15.09Z"/><path class="cls-1" d="m57.86,56.83c0,.41.05.7.16.88.11.18.31.26.63.26h.35c.13,0,.29-.02.47-.06v2.3c-.12.04-.27.08-.45.13-.19.05-.38.09-.57.13-.2.03-.39.07-.59.09-.19.02-.36.03-.49.03-.68,0-1.24-.14-1.69-.41-.45-.27-.74-.75-.88-1.43-.66.64-1.48,1.11-2.44,1.4-.96.29-1.89.44-2.79.44-.68,0-1.33-.09-1.95-.28-.62-.18-1.17-.45-1.65-.82-.48-.36-.85-.81-1.13-1.37-.29-.55-.43-1.2-.43-1.94,0-.93.17-1.69.51-2.28.34-.58.79-1.04,1.34-1.37.56-.33,1.18-.57,1.87-.71.69-.15,1.39-.26,2.09-.34.61-.11,1.18-.2,1.72-.25.54-.05,1.02-.13,1.44-.25.42-.12.75-.3.99-.54.24-.24.37-.61.37-1.1,0-.43-.11-.78-.31-1.05-.2-.27-.45-.48-.76-.63-.3-.14-.64-.24-1.01-.29-.37-.05-.72-.07-1.05-.07-.93,0-1.7.19-2.31.58-.6.39-.94.99-1.02,1.81h-3.32c.05-.97.29-1.78.7-2.42.41-.64.93-1.16,1.56-1.55.63-.39,1.35-.66,2.14-.82.8-.15,1.61-.23,2.45-.23.74,0,1.47.08,2.19.23.71.16,1.36.41,1.94.76.57.35,1.04.8,1.38,1.36.35.55.52,1.23.52,2.03v7.76Zm-3.32-4.2c-.5.33-1.13.53-1.87.6-.74.07-1.48.17-2.22.3-.35.06-.69.14-1.02.25-.33.11-.62.25-.87.44-.25.19-.45.43-.59.73-.15.3-.22.67-.22,1.09,0,.37.11.68.32.93.21.25.47.45.77.6.3.14.63.25.99.31.36.06.68.09.98.09.37,0,.77-.05,1.2-.14.43-.1.83-.26,1.21-.5.38-.23.7-.53.95-.89.25-.36.38-.8.38-1.33v-2.48Z"/><path class="cls-1" d="m61.4,45.1h3.12v2.91h.05c.1-.4.29-.8.57-1.19.28-.39.62-.74,1.02-1.06.4-.32.84-.58,1.32-.78.49-.2.98-.29,1.49-.29.39,0,.66.01.81.03.14.02.3.04.45.06v3.21c-.23-.04-.47-.07-.71-.1-.24-.03-.48-.05-.71-.05-.56,0-1.09.11-1.59.34-.49.22-.93.55-1.3.99-.37.44-.67.98-.87,1.62-.22.64-.33,1.38-.33,2.22v7.18h-3.32v-15.08Z"/><path class="cls-1" d="m71.83,45.1h2.51v-4.52h3.33v4.52h3v2.48h-3v8.05c0,.35,0,.65.04.91.03.25.1.46.21.64.1.18.27.31.48.39.21.09.51.13.87.13.24,0,.46,0,.7-.02.23,0,.47-.04.7-.1v2.57c-.37.04-.73.08-1.08.12-.35.04-.71.06-1.08.06-.87,0-1.58-.08-2.12-.25-.53-.17-.95-.41-1.25-.73-.3-.32-.51-.73-.61-1.21-.11-.48-.17-1.04-.19-1.67v-8.9h-2.51v-2.48Z"/><path class="cls-1" d="m84.97,53.5c0,.59.08,1.15.25,1.7.16.54.41,1.02.74,1.43.33.41.74.73,1.25.98.51.24,1.11.36,1.81.36.97,0,1.76-.21,2.35-.62.59-.42,1.04-1.04,1.33-1.88h3.15c-.18.82-.48,1.54-.91,2.19-.43.64-.95,1.18-1.55,1.62-.6.44-1.28.77-2.03.99-.75.22-1.53.34-2.35.34-1.18,0-2.24-.2-3.15-.58-.91-.39-1.69-.93-2.32-1.63-.64-.7-1.11-1.53-1.43-2.51-.32-.97-.48-2.05-.48-3.21,0-1.07.17-2.09.52-3.05.34-.96.82-1.81,1.46-2.54.63-.73,1.39-1.31,2.29-1.73.9-.43,1.91-.65,3.03-.65,1.19,0,2.25.25,3.2.75.95.5,1.73,1.15,2.35,1.97.62.82,1.07,1.76,1.35,2.82.29,1.06.36,2.15.22,3.28h-11.09Zm7.76-2.19c-.04-.53-.15-1.03-.33-1.52-.19-.48-.44-.91-.76-1.27-.32-.36-.71-.65-1.16-.87-.46-.22-.97-.33-1.54-.33s-1.11.1-1.59.3c-.47.21-.89.49-1.23.85-.34.36-.62.78-.82,1.27-.2.49-.31,1.02-.33,1.58h7.76Z"/><polyline class="cls-1" points="14.88 47.59 24.34 47.59 24.34 39.31 27.84 39.31 27.84 60.14 24.34 60.14 24.34 50.74 14.88 50.74"/><polyline class="cls-1" points="14.89 60.14 11.26 60.14 11.26 39.31 14.89 39.31"/><polyline class="cls-1" points="46.17 31.25 40.74 31.25 40.74 0 46.17 0"/><polyline class="cls-1" points="66.65 31.25 61.21 31.25 61.21 0 66.65 0"/></g></svg>